<svg xmlns="http://www.w3.org/2000/svg" version="1.1" xmlns:xlink="http://www.w3.org/1999/xlink" xmlns:svgjs="http://svgjs.dev/svgjs" viewBox="0 0 800 800"><defs><filter id="llleaves-blur-2" x="-100%" y="-100%" width="400%" height="400%"><feGaussianBlur in="SourceGraphic" stdDeviation="2"></feGaussianBlur></filter><filter id="llleaves-blur-3" x="-100%" y="-100%" width="400%" height="400%"><feGaussianBlur in="SourceGraphic" stdDeviation="4"></feGaussianBlur></filter><filter id="llleaves-blur-4" x="-100%" y="-100%" width="400%" height="400%"><feGaussianBlur in="SourceGraphic" stdDeviation="12"></feGaussianBlur></filter></defs><g fill="hsl(305, 77%, 40%)"><path d="M317 564H367C395 564 417 586 417 614H367C339 614 317 592 317 564Z " transform="matrix(-0.3569058673337033,-0.23177738030325026,0.23177738030325026,-0.3569058673337033,361.4675763128547,884.2798544308441)" opacity="0.65"></path><path d="M366 269H416C444 269 466 291 466 319H416C388 319 366 297 366 269Z " transform="matrix(-0.3695493144685183,-0.19649285596694502,0.19649285596694502,-0.3695493144685183,511.96361516462184,484.3885265359935)" opacity="0.64"></path><path d="M540 733H590C618 733 640 755 640 783H590C562 783 540 761 540 733Z " transform="matrix(-0.20158974511496933,0.2238880937859121,-0.2238880937859121,-0.20158974511496933,878.6451247075534,778.7110514634586)" filter="url(#llleaves-blur-2)" opacity="0.46"></path><path d="M0 117H50C78 117 100 139 100 167H50C22 167 0 145 0 117Z " transform="matrix(-0.17174762563902346,0.23639032681340333,-0.23639032681340333,-0.17174762563902346,92.15480768945444,154.56864650007117)" filter="url(#llleaves-blur-3)" opacity="0.45"></path><path d="M14 22H64C92 22 114 44 114 72H64C36 72 14 50 14 22Z " transform="matrix(-0.383874283342786,-0.06768739335345929,0.06768739335345929,-0.383874283342786,85.38664664632572,69.37408449173233)" filter="url(#llleaves-blur-2)" opacity="0.60"></path><path d="M385 367H435C463 367 485 389 485 417H435C407 417 385 395 385 367Z " transform="matrix(-0.38165990890200663,-0.13891284645308077,0.13891284645308077,-0.38165990890200663,546.5682245627652,602.0377724966767)" opacity="0.62"></path><path d="M707 730H757C785 730 807 752 807 780H757C729 780 707 758 707 730Z " transform="matrix(0.1106117782563993,0.14157662000127463,-0.14157662000127463,0.1106117782563993,780.1572319608681,564.3146060754536)" filter="url(#llleaves-blur-4)" opacity="0.27"></path><path d="M188 325H238C266 325 288 347 288 375H238C210 375 188 353 188 325Z " transform="matrix(-0.3834958427009359,-0.1172464453255202,0.1172464453255202,-0.3834958427009359,288.2357546988907,512.1281989328013)" opacity="0.62"></path><path d="M84 331H134C162 331 184 353 184 381H134C106 381 84 359 84 331Z " transform="matrix(-0.3121629579629244,0.13250531420875908,-0.13250531420875908,-0.3121629579629244,223.00172822535012,449.3743009308274)" filter="url(#llleaves-blur-2)" opacity="0.52"></path><path d="M12 212H62C90 212 112 234 112 262H62C34 262 12 240 12 212Z " transform="matrix(-0.10669996895279851,0.25136937429077144,-0.25136937429077144,-0.10669996895279851,128.18993978198634,246.7029914357854)" filter="url(#llleaves-blur-3)" opacity="0.42"></path><path d="M84 725H134C162 725 184 747 184 775H134C106 775 84 753 84 725Z " transform="matrix(-0.3121629579629244,0.13250531420875908,-0.13250531420875908,-0.3121629579629244,275.2088220236012,966.3665063682196)" filter="url(#llleaves-blur-2)" opacity="0.52"></path><path d="M285 362H335C363 362 385 384 385 412H335C307 412 285 390 285 362Z " transform="matrix(-0.3540650920105624,-0.23881992007772168,0.23881992007772168,-0.3540650920105624,361.18849675346013,604.0278638341244)" opacity="0.66"></path><path d="M231 450H281C309 450 331 472 331 500H281C253 500 231 478 231 450Z " transform="matrix(-0.37244239556659775,-0.18165229368136704,0.18165229368136704,-0.37244239556659775,299.3714736555646,702.954432418598)" opacity="0.64"></path><path d="M-10 408H40C68 408 90 430 90 458H40C12 458 -10 436 -10 408Z " transform="matrix(-0.06279980165860097,0.25187624712214945,-0.25187624712214945,-0.06279980165860097,151.57440707023474,450.11726423328827)" filter="url(#llleaves-blur-3)" opacity="0.40"></path><path d="M486 330H536C564 330 586 352 586 380H536C508 380 486 358 486 330Z " transform="matrix(-0.3196295924648683,0.12269430508028983,-0.12269430508028983,-0.3196295924648683,750.8779398646723,402.70435780199284)" filter="url(#llleaves-blur-2)" opacity="0.52"></path><path d="M2 519H52C80 519 102 541 102 569H52C24 569 2 547 2 519Z " transform="matrix(-0.10669996895279851,0.25136937429077144,-0.25136937429077144,-0.10669996895279851,194.2933379997252,588.9735756472023)" filter="url(#llleaves-blur-3)" opacity="0.42"></path><path d="M702 635H752C780 635 802 657 802 685H752C724 685 702 663 702 635Z " transform="matrix(0.1106117782563993,0.14157662000127463,-0.14157662000127463,0.1106117782563993,762.260511952029,480.53060810981793)" filter="url(#llleaves-blur-4)" opacity="0.27"></path><path d="M118 524H168C196 524 218 546 218 574H168C140 574 118 552 118 524Z " transform="matrix(-0.35926059543631667,0.05049078395829822,-0.05049078395829822,-0.35926059543631667,256.07522042640693,737.7516151895438)" filter="url(#llleaves-blur-2)" opacity="0.56"></path><path d="M263 734H313C341 734 363 756 363 784H313C285 784 263 762 263 734Z " transform="matrix(-0.3589211077793718,-0.22427880000467387,0.22427880000467387,-0.3589211077793718,255.1146975313959,1101.6203852060062)" opacity="0.65"></path><path d="M455 722H505C533 722 555 744 555 772H505C477 772 455 750 455 722Z " transform="matrix(-0.3658582561539301,0.03200844987083267,-0.03200844987083267,-0.3658582561539301,713.6687314112467,1004.1318501622152)" filter="url(#llleaves-blur-2)" opacity="0.56"></path><path d="M523 527H573C601 527 623 549 623 577H573C545 577 523 555 523 527Z " transform="matrix(-0.24501285439122397,0.1984074974135465,-0.1984074974135465,-0.24501285439122397,822.913304138449,573.5595996059934)" filter="url(#llleaves-blur-2)" opacity="0.48"></path><path d="M625 714H675C703 714 725 736 725 764H675C647 764 625 742 625 714Z " transform="matrix(0.012188576079601226,0.23257188620364483,-0.23257188620364483,0.012188576079601226,838.6433350507627,573.0066190897144)" filter="url(#llleaves-blur-3)" opacity="0.36"></path><path d="M235 638H285C313 638 335 660 335 688H285C257 688 235 666 235 638Z " transform="matrix(-0.3668176189357155,-0.20333032640841966,0.20333032640841966,-0.3668176189357155,254.7350149878967,964.1492243807791)" opacity="0.64"></path><path d="M688 220H738C766 220 788 242 788 270H738C710 270 688 248 688 220Z " transform="matrix(0.09985876464896207,0.1598074290951178,-0.1598074290951178,0.09985876464896207,703.4570518173698,102.59671998880737)" filter="url(#llleaves-blur-4)" opacity="0.29"></path><path d="M340 158H390C418 158 440 180 440 208H390C362 208 340 186 340 158Z " transform="matrix(-0.3623563166789947,-0.21772564074828746,0.21772564074828746,-0.3623563166789947,491.47517124787134,334.22420584408815)" opacity="0.65"></path><path d="M364 735H414C442 735 464 757 464 785H414C386 785 364 763 364 735Z " transform="matrix(-0.3695493144685183,-0.19649285596694502,0.19649285596694502,-0.3695493144685183,417.6588456550884,1122.2055213663891)" opacity="0.64"></path><path d="M551 642H601C629 642 651 664 651 692H601C573 692 551 670 551 642Z " transform="matrix(-0.15640667501877079,0.24084515896813868,-0.24084515896813868,-0.15640667501877079,855.6441327180296,626.5753116976688)" filter="url(#llleaves-blur-3)" opacity="0.44"></path><path d="M109 124H159C187 124 209 146 209 174H159C131 174 109 152 109 124Z " transform="matrix(-0.3836320996444635,-0.053915975502663936,0.053915975502663936,-0.3836320996444635,211.96402349357274,214.73382295194864)" filter="url(#llleaves-blur-2)" opacity="0.59"></path><path d="M577 257H627C655 257 677 279 677 307H627C599 307 577 285 577 257Z " transform="matrix(-0.10672403995441829,0.25142608201688516,-0.25142608201688516,-0.10672403995441829,764.8181281801819,154.45202584255898)" filter="url(#llleaves-blur-3)" opacity="0.42"></path><path d="M172 725H222C250 725 272 747 272 775H222C194 775 172 753 172 725Z " transform="matrix(-0.38422049868388125,-0.08166858812338694,0.08166858812338694,-0.38422049868388125,246.04550961528142,1056.2958005763028)" filter="url(#llleaves-blur-2)" opacity="0.60"></path><path d="M705 531H755C783 531 805 553 805 581H755C727 581 705 559 705 531Z " transform="matrix(0.1106117782563993,0.14157662000127463,-0.14157662000127463,0.1106117782563993,750.2047081371272,387.60950318847966)" filter="url(#llleaves-blur-4)" opacity="0.27"></path><path d="M-5 723H45C73 723 95 745 95 773H45C17 773 -5 751 -5 723Z " transform="matrix(-0.06279980165860097,0.25187624712214945,-0.25187624712214945,-0.06279980165860097,236.22942392200483,783.6398205201368)" filter="url(#llleaves-blur-3)" opacity="0.40"></path><path d="M567 146H617C645 146 667 168 667 196H617C589 196 567 174 567 146Z " transform="matrix(-0.11647678742103551,0.24978527670313144,-0.24978527670313144,-0.11647678742103551,731.5794601550144,36.80001492316498)" filter="url(#llleaves-blur-3)" opacity="0.42"></path><path d="M67 440H117C145 440 167 462 167 490H117C89 490 67 468 67 440Z " transform="matrix(-0.2768686408180951,0.17300672815201942,-0.17300672815201942,-0.2768686408180951,229.84175956640615,573.5021307866278)" filter="url(#llleaves-blur-2)" opacity="0.50"></path><path d="M537 420H587C615 420 637 442 637 470H587C559 470 537 448 537 420Z " transform="matrix(-0.20158974511496933,0.2238880937859121,-0.2238880937859121,-0.20158974511496933,804.9633821172179,403.28512552383097)" filter="url(#llleaves-blur-2)" opacity="0.46"></path><path d="M-12 619H38C66 619 88 641 88 669H38C10 669 -12 647 -12 619Z " transform="matrix(-0.06279980165860097,0.25187624712214945,-0.25187624712214945,-0.06279980165860097,202.59469560969106,674.8717748774974)" filter="url(#llleaves-blur-3)" opacity="0.40"></path></g><g fill="none" stroke-width="3" stroke="hsl(305, 77%, 40%)"><path d="M444 444H494C522 444 544 466 544 494H494C466 494 444 472 444 444Z " transform="matrix(-0.37828803026475094,-0.013210109106362628,0.013210109106362628,-0.37828803026475094,674.6787457799029,652.9428800927112)" filter="url(#llleaves-blur-2)" opacity="0.58"></path><path d="M209 179H259C287 179 309 201 309 229H259C231 229 209 207 209 179Z " transform="matrix(-0.3785046561799634,-0.15292580769742425,0.15292580769742425,-0.3785046561799634,325.83584118033593,320.8227340543454)" opacity="0.63"></path><path d="M256 14H306C334 14 356 36 356 64H306C278 64 256 42 256 14Z " transform="matrix(0.0824295447749162,-0.5204396631766021,0.5204396631766021,0.0824295447749162,260.47941243498815,195.0397846858185)" opacity="0.81"></path><path d="M68 621H118C146 621 168 643 168 671H118C90 671 68 649 68 621Z " transform="matrix(-0.2768686408180951,0.17300672815201942,-0.17300672815201942,-0.2768686408180951,262.43284600273984,804.4423480465512)" filter="url(#llleaves-blur-2)" opacity="0.50"></path><path d="M473 613H523C551 613 573 635 573 663H523C495 663 473 641 473 613Z " transform="matrix(-0.3460586525482817,0.07989393513717147,-0.07989393513717147,-0.3460586525482817,754.9610059002669,817.0008922490631)" filter="url(#llleaves-blur-2)" opacity="0.54"></path><path d="M701 317H751C779 317 801 339 801 367H751C723 367 701 345 701 317Z " transform="matrix(0.1106117782563993,0.14157662000127463,-0.14157662000127463,0.1106117782563993,716.34975856988,197.8467302153542)" filter="url(#llleaves-blur-4)" opacity="0.27"></path><path d="M697 24H747C775 24 797 46 797 74H747C719 74 697 52 697 24Z " transform="matrix(0.11779923441829693,0.12198467818146784,-0.12198467818146784,0.11779923441829693,664.9812211204242,-47.89471708805304)" filter="url(#llleaves-blur-4)" opacity="0.26"></path><path d="M123 234H173C201 234 223 256 223 284H173C145 284 123 262 123 234Z " transform="matrix(-0.35926059543631667,0.05049078395829822,-0.05049078395829822,-0.35926059543631667,248.22919605568205,343.3135885932204)" filter="url(#llleaves-blur-2)" opacity="0.56"></path><path d="M263 255H313C341 255 363 277 363 305H313C285 305 263 283 263 255Z " transform="matrix(-0.3589211077793718,-0.22427880000467387,0.22427880000467387,-0.3589211077793718,362.5442427336347,450.69717457968704)" opacity="0.65"></path><path d="M332 464H382C410 464 432 486 432 514H382C354 514 332 492 332 464Z " transform="matrix(-0.3569058673337033,-0.23177738030325026,0.23177738030325026,-0.3569058673337033,404.99890235318526,752.0659284020226)" opacity="0.65"></path><path d="M394 638H444C472 638 494 660 494 688H444C416 688 394 666 394 638Z " transform="matrix(-0.38165990890200663,-0.13891284645308077,0.13891284645308077,-0.38165990890200663,521.3577823540984,977.7178234271983)" opacity="0.62"></path><path d="M464 226H514C542 226 564 248 564 276H514C486 276 464 254 464 226Z " transform="matrix(-0.3658582561539301,0.03200844987083267,-0.03200844987083267,-0.3658582561539301,710.085264580699,326.3780790610284)" filter="url(#llleaves-blur-2)" opacity="0.56"></path><path d="M137 26H187C215 26 237 48 237 76H187C159 76 137 54 137 26Z " transform="matrix(-0.18634746633306468,-0.43900711942601245,0.43900711942601245,-0.18634746633306468,199.45761311355648,142.59805211565063)" opacity="0.73"></path><path d="M610 358H660C688 358 710 380 710 408H660C632 408 610 386 610 358Z " transform="matrix(-0.021427603531859865,0.24491862909199175,-0.24491862909199175,-0.021427603531859865,767.9460532732603,229.56047695198777)" filter="url(#llleaves-blur-3)" opacity="0.38"></path><path d="M-6 306H44C72 306 94 328 94 356H44C16 356 -6 334 -6 306Z " transform="matrix(-0.06279980165860097,0.25187624712214945,-0.25187624712214945,-0.06279980165860097,130.1342290704099,340.70417947562237)" filter="url(#llleaves-blur-3)" opacity="0.40"></path><path d="M150 418H200C228 418 250 440 250 468H200C172 468 150 446 150 418Z " transform="matrix(-0.3815454936760599,-0.04010204733188711,0.04010204733188711,-0.3815454936760599,258.543891767186,620.045063164872)" filter="url(#llleaves-blur-2)" opacity="0.59"></path><path d="M366 35H416C444 35 466 57 466 85H416C388 85 366 63 366 35Z " transform="matrix(-0.12690642763270635,-0.4736212357323233,0.4736212357323233,-0.12690642763270635,440.3757997512664,264.64081972260885)" opacity="0.75"></path><path d="M449 125H499C527 125 549 147 549 175H499C471 175 449 153 449 125Z " transform="matrix(-0.3850452744096242,-0.08184389961579977,0.08184389961579977,-0.3850452744096242,678.8610069880325,248.59689706972773)" filter="url(#llleaves-blur-2)" opacity="0.60"></path><path d="M244 97H294C322 97 344 119 344 147H294C266 147 244 125 244 97Z " transform="matrix(-0.2269552808002341,-0.4094381648746583,0.4094381648746583,-0.2269552808002341,310.77339644056053,270.0633647307781)" opacity="0.72"></path><path d="M482 27H532C560 27 582 49 582 77H532C504 77 482 55 482 27Z " transform="matrix(-0.3840973129028572,-0.07466095442102433,0.07466095442102433,-0.3840973129028572,732.4574008344268,111.69268802293352)" filter="url(#llleaves-blur-2)" opacity="0.60"></path><path d="M152 622H202C230 622 252 644 252 672H202C174 672 152 650 152 622Z " transform="matrix(-0.3815454936760599,-0.04010204733188711,0.04010204733188711,-0.3815454936760599,253.12616509883313,901.9605479694518)" filter="url(#llleaves-blur-2)" opacity="0.59"></path><path d="M617 479H667C695 479 717 501 717 529H667C639 529 617 507 617 479Z " transform="matrix(0.012188576079601226,0.23257188620364483,-0.23257188620364483,0.012188576079601226,776.086450401543,342.7315095580499)" filter="url(#llleaves-blur-3)" opacity="0.36"></path><path d="M222 540H272C300 540 322 562 322 590H272C244 590 222 568 222 540Z " transform="matrix(-0.37244239556659775,-0.18165229368136704,0.18165229368136704,-0.37244239556659775,270.6707856641422,824.8393773764597)" opacity="0.64"></path><path d="M413 535H463C491 535 513 557 513 585H463C435 585 413 563 413 535Z " transform="matrix(-0.38450655680771856,-0.10302822138109963,0.10302822138109963,-0.38450655680771856,583.3307318285579,823.0257383117715)" filter="url(#llleaves-blur-2)" opacity="0.61"></path><path d="M618 585H668C696 585 718 607 718 635H668C640 635 618 613 618 585Z " transform="matrix(0.012188576079601226,0.23257188620364483,-0.23257188620364483,0.012188576079601226,801.7268817630496,447.2069486074085)" filter="url(#llleaves-blur-3)" opacity="0.36"></path><path d="M314 660H364C392 660 414 682 414 710H364C336 710 314 688 314 660Z " transform="matrix(-0.3540039246174851,-0.23877866215013796,0.23877866215013796,-0.3540039246174851,329.2940449879201,1014.4081213856275)" opacity="0.66"></path><path d="M702 424H752C780 424 802 446 802 474H752C724 474 702 452 702 424Z " transform="matrix(0.1106117782563993,0.14157662000127463,-0.14157662000127463,0.1106117782563993,732.3878451317601,292.86969332191825)" filter="url(#llleaves-blur-4)" opacity="0.27"></path><path d="M590 34H640C668 34 690 56 690 84H640C612 84 590 62 590 34Z " transform="matrix(-0.07210078121160955,0.25144530580958047,-0.25144530580958047,-0.07210078121160955,700.9797730181954,-97.67104962664655)" filter="url(#llleaves-blur-3)" opacity="0.40"></path><path d="M689 123H739C767 123 789 145 789 173H739C711 173 689 151 689 123Z " transform="matrix(0.10549559940585321,0.15066333001153384,-0.15066333001153384,0.10549559940585321,683.3369248807815,21.046450409410227)" filter="url(#llleaves-blur-4)" opacity="0.28"></path></g></svg>